<svg xmlns="http://www.w3.org/2000/svg" width="1560" height="520" viewBox="0 0 1560 520"><defs><linearGradient id="bg" x2="1"><stop stop-color="#0b0d13"/><stop offset=".48" stop-color="#26172f"/><stop offset="1" stop-color="#0d1d24"/></linearGradient><filter id="s"><feDropShadow dx="0" dy="12" stdDeviation="10" flood-opacity=".5"/></filter></defs><rect width="1560" height="520" fill="url(#bg)"/><circle cx="130" cy="390" r="250" fill="#b5ff4d" opacity=".07"/><circle cx="1370" cy="80" r="300" fill="#d783ff" opacity=".09"/><g transform="translate(996 38)" filter="url(#s)"><rect width="390" height="304" rx="38" fill="#292231" stroke="#c17be0" stroke-width="13"/><rect x="38" y="43" width="314" height="174" rx="18" fill="#140f18" stroke="#745187" stroke-width="11"/><path d="M72 109l46-31 44 38 48-50 43 51 51-39" fill="none" stroke="#b5ff4d" stroke-width="13" stroke-linecap="round"/><circle cx="145" cy="153" r="14" fill="#ff6378"/><circle cx="252" cy="153" r="14" fill="#ff6378"/><path d="M106 244h178" stroke="#8d8097" stroke-width="12" stroke-linecap="round"/><path d="M135 304l-22 58M259 304l23 58" stroke="#6f6477" stroke-width="14" stroke-linecap="round"/></g><g transform="translate(596 174)" filter="url(#s)"><path d="M55 0h330l49 88-34 300H40L6 88z" fill="#3a2b28" stroke="#c28c5e" stroke-width="20" stroke-linejoin="round"/><path d="M99 12c15-77 59-110 121-110 61 0 106 33 121 110" fill="none" stroke="#ead9b5" stroke-width="20" stroke-linecap="round"/><rect x="78" y="82" width="285" height="218" rx="24" fill="#1c2028" stroke="#858d9b" stroke-width="15"/><g transform="translate(101 105)"><rect width="105" height="86" rx="15" fill="#203448" stroke="#63b9ff" stroke-width="9"/><path d="M26 52l26-40 29 40-28 20z" fill="#a8dcff"/><circle cx="44" cy="48" r="6"/><circle cx="62" cy="48" r="6"/></g><g transform="translate(231 105)"><rect width="105" height="86" rx="15" fill="#402743" stroke="#d87bff" stroke-width="9"/><path d="M52 12l13 25 28 4-20 19 5 28-26-14-26 14 5-28-20-19 28-4z" fill="#f1b4ff"/></g><g transform="translate(101 208)"><rect width="105" height="68" rx="14" fill="#263528" stroke="#94df68" stroke-width="9"/><path d="M27 40h51M52 17v46" stroke="#c4ff9b" stroke-width="11" stroke-linecap="round"/></g><g transform="translate(231 208)"><rect width="105" height="68" rx="14" fill="#34343b" stroke="#ffd46a" stroke-width="9"/><circle cx="52" cy="34" r="20" fill="#d99a32"/><path d="M59 16L43 34h13l-9 19 21-25H55z" fill="#fff0b2"/></g></g><g transform="translate(92 82) rotate(-2)"><path d="M0 0h620l30 100-30 100H0l28-100z" fill="#5a3b2e" stroke="#d9a16f" stroke-width="12"/><text x="327" y="91" text-anchor="middle" font-family="Arial Black,Impact,sans-serif" font-size="82" font-weight="900" fill="#ffd56e" stroke="#261611" stroke-width="12" paint-order="stroke">JUNKPACK</text><text x="327" y="160" text-anchor="middle" font-family="Arial Black,Impact,sans-serif" font-size="48" font-weight="900" letter-spacing="8" fill="#f6e7ff" stroke="#261611" stroke-width="9" paint-order="stroke">BOSS RUSH</text></g><g transform="translate(145 314) rotate(-7)"><rect width="190" height="132" rx="22" fill="#263528" stroke="#94df68" stroke-width="11"/><path d="M48 78l46-58 48 58-46 31z" fill="#c4ff9b"/><circle cx="82" cy="70" r="7"/><circle cx="109" cy="70" r="7"/></g><g transform="translate(360 329) rotate(8)"><rect width="175" height="120" rx="22" fill="#402743" stroke="#d87bff" stroke-width="11"/><path d="M87 18l20 37 41 6-30 29 7 41-38-20-38 20 7-41-30-29 41-6z" fill="#f1b4ff"/></g><path d="M1452 363l39 43-39 43" fill="none" stroke="#63d9ff" stroke-width="16" stroke-linecap="round" stroke-linejoin="round" opacity=".75"/></svg>