<svg xmlns="http://www.w3.org/2000/svg" viewBox="0 0 256 256"><rect width="256" height="256" rx="36" fill="#171820"/><circle cx="127" cy="128" r="76" fill="#69727c" stroke="#171218" stroke-width="14"/><circle cx="127" cy="128" r="22" fill="#ffd16a" stroke="#171218" stroke-width="8"/><path d="M127 105c20-48 48-37 38-5-8 25-22 25-38 28M149 128c49 20 38 48 6 38-25-8-25-22-28-38M127 151c-20 48-48 37-38 5 8-25 22-25 38-28M105 128c-49-20-38-48-6-38 25 8 25 22 28 38" fill="#d9e1e8" stroke="#171218" stroke-width="7"/><path d="M73 194c22-28 26 18 47-5s28 17 50-4" fill="none" stroke="#f2b45f" stroke-width="11" stroke-linecap="round"/><circle cx="84" cy="202" r="7" fill="#91ff6b"/></svg>