<svg xmlns="http://www.w3.org/2000/svg" viewBox="0 0 256 256"><rect width="256" height="256" rx="34" fill="#171820"/><circle cx="128" cy="129" r="79" fill="#d58b5d" stroke="#11131a" stroke-width="11"/><circle cx="128" cy="129" r="29" fill="#171820" stroke="#11131a" stroke-width="7"/><path d="M61 106c20-36 49-51 70-51 30 0 52 14 69 45-9 2-14 12-13 22-14-8-25 3-29 17-14-10-27-7-36 7-13-11-27-7-35 4-7-18-10-30-26-44z" fill="#82ff6a" stroke="#11131a" stroke-width="8"/><circle cx="91" cy="93" r="7" fill="#7a4dff"/><circle cx="151" cy="82" r="7" fill="#ff6c99"/><circle cx="176" cy="115" r="7" fill="#ffe86a"/></svg>