<svg xmlns="http://www.w3.org/2000/svg" viewBox="0 0 128 128"><path d="M64 13l43 18-7 47c-4 22-18 32-36 38-18-6-32-16-36-38l-7-47z" fill="#352329" stroke="#ff6f61" stroke-width="7" stroke-linejoin="round"/><path d="M38 48l18-9 8 13 8-13 18 9-5 34-21 13-21-13z" fill="#512c35" stroke="#ffc07a" stroke-width="5" stroke-linejoin="round"/><path d="M49 60l8 7M79 60l-8 7" stroke="#fff0cc" stroke-width="6" stroke-linecap="round"/><path d="M64 13l-8 29 11 8-10 18 13 8-9 26" fill="none" stroke="#ffd56e" stroke-width="5" stroke-linecap="round" stroke-linejoin="round"/><path d="M39 106l17-12M89 106L72 94" stroke="#ff91e6" stroke-width="6" stroke-linecap="round"/></svg>