<svg xmlns="http://www.w3.org/2000/svg" viewBox="0 0 320 320"><g stroke="#17131d" stroke-width="12" stroke-linejoin="round" stroke-linecap="round"><path fill="#3d5660" d="M60 282c12-70 49-107 100-107s88 37 100 107Z"/><circle cx="160" cy="126" r="76" fill="#d9a874"/><path fill="#59626a" d="M82 90c13-46 46-69 78-69 42 0 70 25 81 72l-37-19-44 14-43-14Z"/><path fill="#8c949b" d="M91 75h138v32H91Z"/><circle fill="#70e9ff" cx="126" cy="122" r="20"/><circle fill="#70e9ff" cx="194" cy="122" r="20"/><path stroke="#70e9ff" d="M146 122h28"/><circle fill="#1a1820" cx="126" cy="122" r="7"/><circle fill="#1a1820" cx="194" cy="122" r="7"/><path d="M143 158c11 7 23 7 34 0"/><path fill="#b5ff4d" d="M126 190h68l17 39-51 34-51-34Z"/><circle fill="#20252a" cx="160" cy="219" r="22"/><circle fill="#b5ff4d" cx="160" cy="219" r="8"/><path fill="#9ea6ad" d="M78 229h43v43H78ZM199 229h43v43h-43Z"/></g></svg>